<?xml version="1.0" encoding="UTF-8"?>
<svg width="3300px" height="2200px" viewBox="0 0 3300 2200" version="1.1" xmlns="http://www.w3.org/2000/svg" xmlns:xlink="http://www.w3.org/1999/xlink">
    <title>gobackward</title>
    <g id="Page-1" stroke="none" stroke-width="1" fill="none" fill-rule="evenodd">
        <g id="gobackward">
            <g id="Notes">
                <rect id="artboard" fill="#FFFFFF" fill-rule="nonzero" x="0" y="0" width="3300" height="2200"></rect>
                <line x1="263" y1="292" x2="3036" y2="292" id="Path" stroke="#000000" stroke-width="0.5"></line>
                <text id="Weight/Scale-Variations" fill="#000000" fill-rule="nonzero" font-family="Helvetica" font-size="13" font-weight="normal">
                    <tspan x="263" y="322">Weight/Scale Variations</tspan>
                </text>
                <text id="Ultralight" fill="#000000" fill-rule="nonzero" font-family="Helvetica" font-size="13" font-weight="normal">
                    <tspan x="533.711" y="322">Ultralight</tspan>
                </text>
                <text id="Thin" fill="#000000" fill-rule="nonzero" font-family="Helvetica" font-size="13" font-weight="normal">
                    <tspan x="843.422" y="322">Thin</tspan>
                </text>
                <text id="Light" fill="#000000" fill-rule="nonzero" font-family="Helvetica" font-size="13" font-weight="normal">
                    <tspan x="1138.63" y="322">Light</tspan>
                </text>
                <text id="Regular" fill="#000000" fill-rule="nonzero" font-family="Helvetica" font-size="13" font-weight="normal">
                    <tspan x="1426.84" y="322">Regular</tspan>
                </text>
                <text id="Medium" fill="#000000" fill-rule="nonzero" font-family="Helvetica" font-size="13" font-weight="normal">
                    <tspan x="1723.06" y="322">Medium</tspan>
                </text>
                <text id="Semibold" fill="#000000" fill-rule="nonzero" font-family="Helvetica" font-size="13" font-weight="normal">
                    <tspan x="2015.77" y="322">Semibold</tspan>
                </text>
                <text id="Bold" fill="#000000" fill-rule="nonzero" font-family="Helvetica" font-size="13" font-weight="normal">
                    <tspan x="2326.48" y="322">Bold</tspan>
                </text>
                <text id="Heavy" fill="#000000" fill-rule="nonzero" font-family="Helvetica" font-size="13" font-weight="normal">
                    <tspan x="2618.19" y="322">Heavy</tspan>
                </text>
                <text id="Black" fill="#000000" fill-rule="nonzero" font-family="Helvetica" font-size="13" font-weight="normal">
                    <tspan x="2917.4" y="322">Black</tspan>
                </text>
                <line x1="263" y1="1903" x2="3036" y2="1903" id="Path" stroke="#000000" stroke-width="0.5"></line>
                <g id="Group" transform="translate(264.367190, 1918.068400)" fill="#000000" fill-rule="nonzero">
                    <path d="M7.88086,15.761678 C12.18751,15.761678 15.77151,12.18746 15.77151,7.88082 C15.77151,3.5742 12.17771,0 7.87109,0 C3.57422,0 -8.8817842e-16,3.5742 -8.8817842e-16,7.88082 C-8.8817842e-16,12.18746 3.58398,15.761678 7.88086,15.761678 Z M7.88086,14.277303 C4.33593,14.277303 1.5039,11.43551 1.5039,7.88082 C1.5039,4.3261 4.32617,1.4843 7.87109,1.4843 C11.42581,1.4843 14.27731,4.3261 14.27731,7.88082 C14.27731,11.43551 11.43551,14.277303 7.88086,14.277303 Z M4.28711,7.88082 C4.28711,8.31051 4.58984,8.60348 5.03906,8.60348 L7.13867,8.60348 L7.13867,10.72262 C7.13867,11.16207 7.43164,11.4648 7.86133,11.4648 C8.31054,11.4648 8.60351,11.16207 8.60351,10.72262 L8.60351,8.60348 L10.72261,8.60348 C11.16211,8.60348 11.46481,8.31051 11.46481,7.88082 C11.46481,7.44137 11.16211,7.13863 10.72261,7.13863 L8.60351,7.13863 L8.60351,5.02926 C8.60351,4.58 8.31054,4.2773 7.86133,4.2773 C7.43164,4.2773 7.13867,4.58 7.13867,5.02926 L7.13867,7.13863 L5.03906,7.13863 C4.58984,7.13863 4.28711,7.44137 4.28711,7.88082 Z" id="Shape"></path>
                </g>
                <g id="Group" transform="translate(283.615050, 1915.988300)" fill="#000000" fill-rule="nonzero">
                    <path d="M9.96095,19.92186 C15.41015,19.92186 19.92185,15.40037 19.92185,9.96092 C19.92185,4.5117 15.40035,0 9.95115,0 C4.51172,0 8.8817842e-16,4.5117 8.8817842e-16,9.96092 C8.8817842e-16,15.40037 4.52148,19.92186 9.96095,19.92186 Z M9.96095,18.2617 C5.35156,18.2617 1.66992,14.57029 1.66992,9.96092 C1.66992,5.3515 5.34179,1.6601 9.95115,1.6601 C14.56055,1.6601 18.26175,5.3515 18.26175,9.96092 C18.26175,14.57029 14.57035,18.2617 9.96095,18.2617 Z M5.42968,9.96092 C5.42968,10.43943 5.76172,10.7617 6.25976,10.7617 L9.13085,10.7617 L9.13085,13.64256 C9.13085,14.13084 9.46285,14.47264 9.94145,14.47264 C10.42965,14.47264 10.77145,14.14061 10.77145,13.64256 L10.77145,10.7617 L13.65235,10.7617 C14.14065,10.7617 14.48245,10.43943 14.48245,9.96092 C14.48245,9.47264 14.14065,9.13084 13.65235,9.13084 L10.77145,9.13084 L10.77145,6.2597 C10.77145,5.7617 10.42965,5.4199 9.94145,5.4199 C9.46285,5.4199 9.13085,5.7617 9.13085,6.2597 L9.13085,9.13084 L6.25976,9.13084 C5.76172,9.13084 5.42968,9.47264 5.42968,9.96092 Z" id="Shape"></path>
                </g>
                <g id="Group" transform="translate(307.901860, 1913.224600)" fill="#000000" fill-rule="nonzero">
                    <path d="M12.71484,25.43946 C19.67774,25.43946 25.43944,19.6777438 25.43944,12.72462 C25.43944,5.7617 19.66794,0 12.70504,0 C5.75195,0 0,5.7617 0,12.72462 C0,19.6777438 5.76172,25.43946 12.71484,25.43946 Z M12.71484,23.62306 C6.67969,23.62306 1.82617,18.75978 1.82617,12.72462 C1.82617,6.6797 6.66992,1.8262 12.70504,1.8262 C18.75004,1.8262 23.61324,6.6797 23.61324,12.72462 C23.61324,18.75978 18.75974,23.62306 12.71484,23.62306 Z M6.94336,12.72462 C6.94336,13.2422 7.31445,13.60352 7.86134,13.60352 L11.80664,13.60352 L11.80664,17.5586 C11.80664,18.09571 12.17774,18.47657 12.69534,18.47657 C13.23244,18.47657 13.60354,18.10548 13.60354,17.5586 L13.60354,13.60352 L17.55864,13.60352 C18.09574,13.60352 18.47654,13.2422 18.47654,12.72462 C18.47654,12.17774 18.10544,11.80665 17.55864,11.80665 L13.60354,11.80665 L13.60354,7.8613 C13.60354,7.3145 13.23244,6.9336 12.69534,6.9336 C12.17774,6.9336 11.80664,7.3145 11.80664,7.8613 L11.80664,11.80665 L7.86134,11.80665 C7.31445,11.80665 6.94336,12.17774 6.94336,12.72462 Z" id="Shape"></path>
                </g>
                <text id="Design-Variations" fill="#000000" fill-rule="nonzero" font-family="Helvetica" font-size="13" font-weight="normal">
                    <tspan x="263" y="1953">Design Variations</tspan>
                </text>
                <text id="Symbols-are-supported-in-up-to-nine-weights-and-three-scales." fill="#000000" fill-rule="nonzero" font-family="Helvetica" font-size="13" font-weight="normal">
                    <tspan x="263" y="1971">Symbols are supported in up to nine weights and three scales.</tspan>
                </text>
                <text id="For-optimal-layout-with-text-and-other-symbols,-vertically-align" fill="#000000" fill-rule="nonzero" font-family="Helvetica" font-size="13" font-weight="normal">
                    <tspan x="263" y="1989">For optimal layout with text and other symbols, vertically align</tspan>
                </text>
                <text id="symbols-with-the-adjacent-text." fill="#000000" fill-rule="nonzero" font-family="Helvetica" font-size="13" font-weight="normal">
                    <tspan x="263" y="2007">symbols with the adjacent text.</tspan>
                </text>
                <line x1="776" y1="1919" x2="776" y2="1933" id="Path" stroke="#00AEEF" stroke-width="0.5"></line>
                <g id="Group" transform="translate(778.490230, 1918.732400)" fill="#000000" fill-rule="nonzero">
                    <path d="M0.82032,14.42385 C1.33789,14.42385 1.5918,14.2285375 1.77735,13.681662 L3.03711,10.2344 L8.79887,10.2344 L10.05857,13.681662 C10.24417,14.2285375 10.49807,14.42385 11.00587,14.42385 C11.52347,14.42385 11.85547,14.11135 11.85547,13.623069 C11.85547,13.457053 11.82617,13.300803 11.74807,13.09572 L7.16797,0.8985 C6.94336,0.3028 6.54297,0 5.91797,0 C5.3125,0 4.90235,0.293 4.6875,0.8887 L0.10743,13.10549 C0.0293,13.310569 -4.4408921e-16,13.466819 -4.4408921e-16,13.632834 C-4.4408921e-16,14.121116 0.3125,14.42385 0.82032,14.42385 Z M3.51563,8.75002 L5.88868,2.1778 L5.9375,2.1778 L8.31057,8.75002 L3.51563,8.75002 Z" id="Shape"></path>
                </g>
                <line x1="793.197" y1="1919" x2="793.197" y2="1933" id="Path" stroke="#00AEEF" stroke-width="0.5"></line>
                <text id="Margins" fill="#000000" fill-rule="nonzero" font-family="Helvetica" font-size="13" font-weight="normal">
                    <tspan x="776" y="1953">Margins</tspan>
                </text>
                <text id="Leading-and-trailing-margins-on-the-left-and-right-side-of-each-symbol" fill="#000000" fill-rule="nonzero" font-family="Helvetica" font-size="13" font-weight="normal">
                    <tspan x="776" y="1971">Leading and trailing margins on the left and right side of each symbol</tspan>
                </text>
                <text id="can-be-adjusted-by-modifying-the-x-location-of-the-margin-guidelines." fill="#000000" fill-rule="nonzero" font-family="Helvetica" font-size="13" font-weight="normal">
                    <tspan x="776" y="1989">can be adjusted by modifying the x-location of the margin guidelines.</tspan>
                </text>
                <text id="Modifications-are-automatically-applied-proportionally-to-all" fill="#000000" fill-rule="nonzero" font-family="Helvetica" font-size="13" font-weight="normal">
                    <tspan x="776" y="2007">Modifications are automatically applied proportionally to all</tspan>
                </text>
                <text id="scales-and-weights." fill="#000000" fill-rule="nonzero" font-family="Helvetica" font-size="13" font-weight="normal">
                    <tspan x="776" y="2025">scales and weights.</tspan>
                </text>
                <g id="Group" transform="translate(1291.248126, 1914.517396)" fill="#000000" fill-rule="nonzero">
                    <path d="M0.593673634,20.347834 L2.29289363,22.056824 C3.15226363,22.925964 4.13859363,22.867374 5.06632363,21.841984 L15.7596736,10.054874 L14.7928736,9.07830404 L4.17765363,20.757994 C3.82609363,21.158384 3.49406363,21.256044 3.02531363,20.787294 L1.85343363,19.625184 C1.38468363,19.166198 1.49210363,18.824401 1.89249363,18.4630728 L13.3670736,7.66230404 L12.3905736,6.69550404 L0.798753634,17.584166 C-0.187576366,18.5021352 -0.265706366,19.478698 0.593673634,20.347834 Z M7.00968363,2.15450404 C6.58976363,2.56460404 6.56046363,3.14080404 6.79484363,3.53140404 C7.02921363,3.89280404 7.48820363,4.12710404 8.13277363,3.96110404 C9.59757363,3.61930404 11.1209736,3.56070404 12.5467736,4.49820404 L11.9608736,5.95330404 C11.6190736,6.78340404 11.7948736,7.36930404 12.3319736,7.91620404 L14.6268736,10.230654 C15.1151736,10.718934 15.5252736,10.738464 16.0916736,10.640804 L17.1561736,10.445494 L17.8202736,11.119324 L17.7811736,11.675964 C17.7420736,12.174014 17.8690736,12.554874 18.3573736,13.033384 L19.1190736,13.775574 C19.5975736,14.254084 20.2127736,14.283384 20.6815736,13.814634 L23.5916736,10.894714 C24.0604736,10.425964 24.0409736,9.83026404 23.5623736,9.35174404 L22.7909736,8.59002404 C22.3123736,8.11150404 21.9413736,7.95530404 21.4627736,7.99430404 L20.8866736,8.04310404 L20.2420736,7.40840404 L20.4862736,6.28530404 C20.6131736,5.71890404 20.4569736,5.27950404 19.8709736,4.69350404 L17.6737736,2.50600404 C14.3338736,-0.814295964 9.90027363,-0.736195964 7.00968363,2.15450404 Z M8.50387363,2.52560404 C10.9354736,0.748204036 14.2264736,1.05100404 16.4530736,3.27750404 L18.8846736,5.68960404 C19.1190736,5.92400404 19.1580736,6.10960404 19.0897736,6.45140404 L18.7674736,7.93570404 L20.2713736,9.42010404 L21.2577736,9.36151404 C21.5116736,9.35174404 21.5897736,9.37127404 21.7850736,9.56658404 L22.3612736,10.142764 L19.9198736,12.584164 L19.3436736,12.007994 C19.1483736,11.812684 19.1190736,11.734554 19.1288736,11.470884 L19.1971736,10.494324 L17.7030736,9.00994404 L16.1795736,9.26385404 C15.8573736,9.33221404 15.7108736,9.30291404 15.4666736,9.06854404 L13.4647736,7.06660404 C13.2108736,6.83220404 13.1815736,6.66620404 13.3377736,6.29510404 L14.2166736,4.20530404 C12.6541736,2.75020404 10.6229736,2.12520404 8.59167363,2.72090404 C8.43547363,2.75990404 8.37687363,2.63300404 8.50387363,2.52560404 Z" id="Shape"></path>
                </g>
                <text id="Exporting" fill="#000000" fill-rule="nonzero" font-family="Helvetica" font-size="13" font-weight="normal">
                    <tspan x="1289" y="1953">Exporting</tspan>
                </text>
                <text id="Symbols-should-be-outlined-when-exporting-to-ensure-the" fill="#000000" fill-rule="nonzero" font-family="Helvetica" font-size="13" font-weight="normal">
                    <tspan x="1289" y="1971">Symbols should be outlined when exporting to ensure the</tspan>
                </text>
                <text id="design-is-preserved-when-submitting-to-Xcode." fill="#000000" fill-rule="nonzero" font-family="Helvetica" font-size="13" font-weight="normal">
                    <tspan x="1289" y="1989">design is preserved when submitting to Xcode.</tspan>
                </text>
                <text id="template-version" fill="#000000" fill-rule="nonzero" font-family="Helvetica" font-size="13" font-weight="normal">
                    <tspan x="2952" y="1933">Template v.4.0</tspan>
                </text>
                <text id="Requires-Xcode-14-or-greater" fill="#000000" fill-rule="nonzero" font-family="Helvetica" font-size="13" font-weight="normal">
                    <tspan x="2865" y="1951">Requires Xcode 14 or greater</tspan>
                </text>
                <text id="descriptive-name" fill="#000000" fill-rule="nonzero" font-family="Helvetica" font-size="13" font-weight="normal">
                    <tspan x="2871" y="1969">Generated from gobackward</tspan>
                </text>
                <text id="Typeset-at-100-points" fill="#000000" fill-rule="nonzero" font-family="Helvetica" font-size="13" font-weight="normal">
                    <tspan x="2912" y="1987">Typeset at 100 points</tspan>
                </text>
                <text id="Small" fill="#000000" fill-rule="nonzero" font-family="Helvetica" font-size="13" font-weight="normal">
                    <tspan x="263" y="726">Small</tspan>
                </text>
                <text id="Medium" fill="#000000" fill-rule="nonzero" font-family="Helvetica" font-size="13" font-weight="normal">
                    <tspan x="263" y="1156">Medium</tspan>
                </text>
                <text id="Large" fill="#000000" fill-rule="nonzero" font-family="Helvetica" font-size="13" font-weight="normal">
                    <tspan x="263" y="1586">Large</tspan>
                </text>
            </g>
            <g id="Guides" transform="translate(263.000000, 600.785000)">
                <g id="H-reference" transform="translate(76.993654, 24.756000)" fill="#27AAE1" fill-rule="nonzero">
                    <path d="M0,70.459 L2.644096,70.459 L28.334446,3.3267 L29.036646,3.3267 L29.036646,0 L27.128946,0 L0,70.459 Z M10.694846,45.9791 L45.987846,45.9791 L45.237846,43.7305 L11.444846,43.7305 L10.694846,45.9791 Z M54.125946,70.459 L56.770046,70.459 L29.644546,0 L28.438946,0 L28.438946,3.3267 L54.125946,70.459 Z" id="Shape"></path>
                </g>
                <line x1="0" y1="95.215" x2="2773" y2="95.215" id="Baseline-S" stroke="#27AAE1" stroke-width="0.5"></line>
                <line x1="0" y1="24.756" x2="2773" y2="24.756" id="Capline-S" stroke="#27AAE1" stroke-width="0.5"></line>
                <g id="H-reference" transform="translate(76.993654, 454.756000)" fill="#27AAE1" fill-rule="nonzero">
                    <path d="M0,70.459 L2.644096,70.459 L28.334446,3.3267 L29.036646,3.3267 L29.036646,0 L27.128946,0 L0,70.459 Z M10.694846,45.9791 L45.987846,45.9791 L45.237846,43.7305 L11.444846,43.7305 L10.694846,45.9791 Z M54.125946,70.459 L56.770046,70.459 L29.644546,0 L28.438946,0 L28.438946,3.3267 L54.125946,70.459 Z" id="Shape"></path>
                </g>
                <line x1="0" y1="525.215" x2="2773" y2="525.215" id="Baseline-M" stroke="#27AAE1" stroke-width="0.5"></line>
                <line x1="0" y1="454.755" x2="2773" y2="454.755" id="Capline-M" stroke="#27AAE1" stroke-width="0.5"></line>
                <g id="H-reference" transform="translate(76.993654, 884.756000)" fill="#27AAE1" fill-rule="nonzero">
                    <path d="M0,70.459 L2.644096,70.459 L28.334446,3.3267 L29.036646,3.3267 L29.036646,0 L27.128946,0 L0,70.459 Z M10.694846,45.9791 L45.987846,45.9791 L45.237846,43.7305 L11.444846,43.7305 L10.694846,45.9791 Z M54.125946,70.459 L56.770046,70.459 L29.644546,0 L28.438946,0 L28.438946,3.3267 L54.125946,70.459 Z" id="Shape"></path>
                </g>
                <line x1="0" y1="955.215" x2="2773" y2="955.215" id="Baseline-L" stroke="#27AAE1" stroke-width="0.5"></line>
                <line x1="0" y1="884.755" x2="2773" y2="884.755" id="Capline-L" stroke="#27AAE1" stroke-width="0.5"></line>
                <line x1="252.649" y1="1.13686838e-13" x2="252.649" y2="119.336" id="left-margin-Ultralight-S" stroke="#00AEEF" stroke-width="0.5"></line>
                <line x1="340.773" y1="1.13686838e-13" x2="340.773" y2="119.336" id="right-margin-Ultralight-S" stroke="#00AEEF" stroke-width="0.5"></line>
                <line x1="1140.58" y1="1.13686838e-13" x2="1140.58" y2="119.336" id="left-margin-Regular-S" stroke="#00AEEF" stroke-width="0.5"></line>
                <line x1="1233.11" y1="1.13686838e-13" x2="1233.11" y2="119.336" id="right-margin-Regular-S" stroke="#00AEEF" stroke-width="0.5"></line>
                <line x1="2621.57" y1="1.13686838e-13" x2="2621.57" y2="119.336" id="left-margin-Black-S" stroke="#00AEEF" stroke-width="0.5"></line>
                <line x1="2719.23" y1="1.13686838e-13" x2="2719.23" y2="119.336" id="right-margin-Black-S" stroke="#00AEEF" stroke-width="0.5"></line>
            </g>
            <g id="Symbols" transform="translate(522.484940, 611.234086)" fill-rule="nonzero">
                <g id="Black-S" transform="translate(2368.921000, -0.000000)">
                    <path d="M0,49.5120135 C0,72.6565135 18.84766,91.5041935 41.99216,91.5041935 C65.13676,91.5041935 83.98436,72.6565135 83.98436,49.5120135 C83.98436,29.8831135 70.45896,13.3304135 52.19726,8.78931353 L52.19726,3.76001353 C52.19726,-0.097386466 48.73046,-1.12278647 44.97066,1.31861353 L28.90626,11.7679135 C25.92776,13.7210135 26.02536,17.5296135 28.90626,19.4339135 L44.97066,29.9319135 C48.68166,32.3733135 52.19726,31.4456135 52.19726,27.4905135 L52.19726,23.5843135 C62.54886,27.6858135 69.82426,37.6956135 69.82426,49.5120135 C69.82426,64.8929135 57.37306,77.3440335 41.99216,77.3440335 C26.61136,77.3440335 14.16016,64.8929135 14.16016,49.5120135 C14.16016,42.2854135 16.74806,36.2796135 21.38676,30.8108135 C24.21876,27.4905135 25.24416,23.1936135 22.07026,20.0198135 C19.28706,17.2366135 15.13676,17.3831135 11.32816,20.8499135 C4.58986,26.9534135 0,39.5022135 0,49.5120135 Z" id="Path" fill="#000000"></path>
                    <path d="M42.33396,66.9925135 C51.80666,66.9925135 57.66606,63.0862135 57.66606,56.7386135 C57.66606,52.5393135 54.68746,49.2190135 50.68356,48.9261135 L50.68356,48.2913135 C54.05276,47.8518135 56.93356,44.7757135 56.93356,41.5530135 C56.93356,35.8401135 51.26956,32.2268135 42.33396,32.2268135 C35.35156,32.2268135 30.37106,34.5218135 28.85746,38.3304135 C28.56446,39.0628135 28.41796,39.8440135 28.41796,40.6253135 C28.41796,43.5550135 30.51756,45.3616135 33.98436,45.3616135 C35.93746,45.3616135 37.40236,44.6780135 38.72066,43.1155135 C39.74606,41.8948135 40.96676,41.2600135 42.28516,41.2600135 C43.70116,41.2600135 44.62886,41.8948135 44.62886,42.8714135 C44.62886,44.0921135 43.70116,44.8733135 42.13866,44.8733135 L42.04106,44.8733135 C38.57426,44.8733135 36.57226,46.5823135 36.57226,49.5120135 C36.57226,52.3929135 38.67186,54.1995135 42.04106,54.1995135 L42.13866,54.1995135 C44.04296,54.1995135 44.97066,54.7854135 44.97066,55.9085135 C44.97066,56.8850135 43.99416,57.5686135 42.62696,57.5686135 C40.91796,57.5686135 39.64846,56.9827135 38.57426,55.7132135 C37.30466,54.1995135 35.79106,53.4671135 33.78906,53.4671135 C30.37106,53.4671135 28.27146,55.2737135 28.27146,58.2034135 C28.27146,58.9847135 28.41796,59.7659135 28.71096,60.4983135 C30.22456,64.3069135 35.79106,66.9925135 42.33396,66.9925135 Z" id="Path" fill="#212121"></path>
                </g>
                <g id="Regular-S" transform="translate(887.931000, 2.612577)">
                    <path d="M0,46.8994368 C0,68.4326368 17.91996,86.3037268 39.40426,86.3037268 C60.93746,86.3037268 78.85746,68.4326368 78.85746,46.8994368 C78.85746,27.9541368 64.99026,11.8408368 47.02146,8.22753676 L47.02146,3.00293676 C47.02146,-0.0243632446 44.92186,-0.805663245 42.67576,0.854536755 L30.27346,9.54593676 C28.36916,10.8642368 28.32026,12.9150368 30.27346,14.2822368 L42.62696,22.9736368 C44.92186,24.6338368 47.02146,23.8525368 47.02146,20.7763368 L47.02146,15.8447368 C61.08396,19.2138368 71.33786,31.7627368 71.33786,46.8994368 C71.33786,64.6728368 57.17776,78.8818568 39.40426,78.8818568 C21.67966,78.8818568 7.42186,64.6728368 7.47066,46.8994368 C7.51956,36.4502368 12.40236,27.2705368 20.06836,21.4599368 C21.82616,20.1416368 22.41206,18.0420368 21.28906,16.2353368 C20.21486,14.4287368 17.77346,13.9892368 15.82026,15.4541368 C6.24996,22.7295368 0,34.2041368 0,46.8994368 Z" id="Path" fill="#000000"></path>
                    <path d="M39.01366,65.3076368 C47.55856,65.3076368 52.68556,60.9131368 52.68556,54.8095368 C52.68556,50.2685368 49.31636,46.6553368 44.67776,46.2158368 L44.67776,45.9228368 C48.48636,45.3857368 51.46486,41.8213368 51.46486,37.8174368 C51.46486,32.3974368 46.48436,28.4912368 39.45316,28.4912368 C32.91016,28.4912368 28.17386,31.4209368 27.00196,36.0595368 C26.90426,36.6455368 26.85546,37.0849368 26.85546,37.7197368 C26.85546,39.3799368 28.07616,40.5517368 29.78516,40.5517368 C31.29886,40.5517368 32.22656,39.8193368 32.71486,38.3545368 C33.69136,35.6201368 35.88866,33.9599368 39.30666,33.9599368 C42.91996,33.9599368 45.06836,35.6689368 45.06836,38.5986368 C45.06836,41.5771368 42.57816,43.7256368 39.06246,43.7256368 L36.86526,43.7256368 C35.30276,43.7256368 34.17966,44.7998368 34.17966,46.3623368 C34.17966,47.8760368 35.30276,48.9990368 36.86526,48.9990368 L39.25786,48.9990368 C43.45706,48.9990368 46.24026,51.1963368 46.24026,54.5166368 C46.24026,57.7392368 43.40816,59.8388368 39.16016,59.8388368 C35.05856,59.8388368 33.00786,57.8857368 32.03126,55.4443368 C31.44526,53.9306368 30.51756,53.2471368 29.05276,53.2471368 C27.34376,53.2471368 26.12306,54.5166368 26.12306,56.1767368 C26.12306,56.8115368 26.17186,57.1533368 26.26956,57.7392368 C27.44136,62.2314368 32.56836,65.3076368 39.01366,65.3076368 Z" id="Path" fill="#212121"></path>
                </g>
                <g id="Ultralight-S" transform="translate(0.000000, 5.110649)">
                    <path d="M0,44.492165 C0,64.980965 16.73926,81.716805 37.22466,81.716805 C57.66796,81.716805 74.45266,64.980965 74.45266,44.492165 C74.45266,26.227965 61.08496,10.932065 43.66116,7.81836495 L43.66116,1.36766495 C43.66116,0.0658649509 42.74216,-0.442935049 41.49516,0.445264951 L30.13716,8.41016495 C29.09566,9.09276495 29.09226,10.053665 30.13716,10.785165 L41.49166,18.704565 C42.74216,19.592765 43.66116,19.083965 43.66116,17.778765 L43.66116,10.077165 C59.90336,13.128465 72.20066,27.402865 72.20066,44.492165 C72.20066,63.809565 56.54196,79.471647 37.22466,79.471647 C17.91066,79.471647 2.24516,63.809565 2.20316,44.492165 C2.20658,31.590865 9.22366,20.322265 19.70506,14.239265 C20.23686,13.874565 20.41406,13.228065 20.10836,12.647465 C19.85156,12.157665 19.18116,11.945265 18.54486,12.365765 C7.47606,18.823765 0,30.843265 0,44.492165 Z" id="Path" fill="#000000"></path>
                    <path d="M37.42436,61.810565 C44.10746,61.810565 48.87116,57.733865 48.87116,52.129865 C48.87116,47.861365 45.41116,44.248065 40.90876,43.808565 L40.90876,43.606465 C44.80816,42.887665 47.65046,39.414065 47.65046,35.455565 C47.65046,30.535165 43.30566,26.992165 37.40966,26.992165 C32.36526,26.992165 27.94676,29.785665 27.41066,33.788565 C27.35836,34.192865 27.30956,34.496065 27.30956,34.858365 C27.30956,35.519565 27.75826,36.010265 28.37746,36.010265 C29.07376,36.010265 29.50196,35.641165 29.53616,34.993665 C30.01326,31.487265 33.25486,29.100565 37.39946,29.100565 C42.14796,29.100565 45.29536,31.763165 45.29536,35.737265 C45.29536,39.669465 41.94236,42.771465 37.60936,42.771465 L34.36766,42.771465 C33.71336,42.771465 33.31686,43.164565 33.31686,43.818865 C33.31686,44.469765 33.71336,44.866265 34.36766,44.866265 L37.89556,44.866265 C42.82126,44.866265 46.51266,48.017065 46.51266,52.109365 C46.51266,56.648865 42.86326,59.702165 37.43456,59.702165 C33.10596,59.702165 29.55666,57.249465 28.80716,53.809065 C28.67536,53.112765 28.29246,52.792465 27.64506,52.792465 C27.02586,52.792465 26.53176,53.290065 26.53176,53.951165 C26.53176,54.313465 26.58056,54.609865 26.67826,55.014165 C27.85006,59.052265 32.20506,61.810565 37.42436,61.810565 Z" id="Path" fill="#212121"></path>
                </g>
            </g>
        </g>
    </g>
</svg>